<?xml version="1.0" encoding="UTF-8" standalone="no"?>
<svg
   xmlns:dc="http://purl.org/dc/elements/1.1/"
   xmlns:cc="http://creativecommons.org/ns#"
   xmlns:rdf="http://www.w3.org/1999/02/22-rdf-syntax-ns#"
   xmlns:svg="http://www.w3.org/2000/svg"
   xmlns="http://www.w3.org/2000/svg"
   xmlns:sodipodi="http://sodipodi.sourceforge.net/DTD/sodipodi-0.dtd"
   xmlns:inkscape="http://www.inkscape.org/namespaces/inkscape"
   enable-background="new 0 0 128 128"
   height="128px"
   id="Layer_1"
   version="1.1"
   viewBox="0 0 128 128"
   width="128px"
   xml:space="preserve"
   inkscape:version="0.91 r"
   sodipodi:docname="1441800239_free-19.svg"><metadata
     id="metadata15"><rdf:RDF><cc:Work
         rdf:about=""><dc:format>image/svg+xml</dc:format><dc:type
           rdf:resource="http://purl.org/dc/dcmitype/StillImage" /></cc:Work></rdf:RDF></metadata><defs
     id="defs13" /><sodipodi:namedview
     pagecolor="#ffffff"
     bordercolor="#666666"
     borderopacity="1"
     objecttolerance="10"
     gridtolerance="10"
     guidetolerance="10"
     inkscape:pageopacity="0"
     inkscape:pageshadow="2"
     inkscape:window-width="640"
     inkscape:window-height="480"
     id="namedview11"
     showgrid="false"
     inkscape:zoom="1.84375"
     inkscape:cx="64"
     inkscape:cy="64"
     inkscape:window-x="0"
     inkscape:window-y="0"
     inkscape:window-maximized="0"
     inkscape:current-layer="Layer_1" /><path
     d="M111,18c3.3,0,6,2.7,6,6v66c0,3.3-2.7,6-6,6H18c-3.3,0-6-2.7-6-6V24c0-3.3,2.7-6,6-6H111 M111,14H18  c-5.5,0-10,4.5-10,10v66c0,5.5,4.5,10,10,10h93c5.5,0,10-4.5,10-10V24C121,18.5,116.5,14,111,14L111,14z"
     fill="#2C3E50"
     id="path3"
     style="fill:#00ffff" /><circle
     cx="65"
     cy="88"
     fill="#2C3E50"
     r="3"
     id="circle5"
     style="fill:#00ffff" /><path
     d="M83.5,113H67v-8.5c0-1.1-0.9-2-2-2s-2,0.9-2,2v8.5H46.5c-1.1,0-2,0.9-2,2s0.9,2,2,2h37c1.1,0,2-0.9,2-2  S84.6,113,83.5,113z"
     fill="#2C3E50"
     id="path7"
     style="fill:#00ffff" /><path
     d="M108,27v51H21V27H108 M110,25H19v55h91V25L110,25z"
     fill="#3B97D3"
     id="path9"
     style="fill:#2a2aff" /></svg>